<svg class="icon" style="width: 1em;height: 1em;vertical-align: middle;fill: currentColor;overflow: hidden;" viewBox="0 0 1024 1024" version="1.1" xmlns="http://www.w3.org/2000/svg"><path d="M641.706667 971.093333l-47.786667-47.786666 85.333333-85.333334c107.52-107.52 119.466667-279.893333 27.306667-399.36l54.613333-40.96c112.64 148.48 97.28 358.4-34.133333 489.813334l-85.333333 83.626666zM774.826667 307.2l-157.013334-157.013333 129.706667-129.706667 157.013333 157.013333-129.706666 129.706667z m-61.44-157.013333l61.44 61.44 34.133333-34.133334-61.44-61.44-34.133333 34.133334z" fill="#191919" /><path d="M137.642667 574.907733l48.264533-48.2816 212.394667 212.394667-48.264534 48.2816z" fill="#00C97C" /><path d="M174.08 913.066667h674.133333v68.266666H174.08zM474.453333 730.453333L194.56 450.56 597.333333 47.786667l279.893334 279.893333-402.773334 402.773333zM290.133333 450.56l184.32 184.32 305.493334-305.493333L597.333333 145.066667 290.133333 450.56z" fill="#191919" /></svg>